 <svg  version="1.0" xmlns="http://www.w3.org/2000/svg"  width="200.000000pt" height="200.000000pt" viewBox="0 0 200.000000 200.000000"  preserveAspectRatio="xMidYMid meet">  <g transform="translate(0.000000,200.000000) scale(0.100000,-0.100000)" fill="#ca4949" stroke="none"> <path d="M660 1709 c-119 -33 -170 -57 -270 -124 -182 -123 -313 -313 -353 -513 -21 -102 -21 -143 -2 -213 27 -93 55 -132 136 -186 34 -22 37 -28 28 -50 -34 -91 31 -257 126 -323 56 -39 147 -64 199 -56 98 16 191 68 253 144 21 25 45 53 54 63 9 9 21 24 26 34 9 15 13 14 43 -14 37 -34 135 -71 187 -71 45 0 162 30 191 48 20 13 25 12 61 -21 57 -52 79 -64 144 -78 155 -34 338 67 363 200 5 23 1 53 -11 87 -13 39 -16 67 -11 106 16 129 64 325 122 496 35 106 43 177 23 215 -31 60 -92 100 -198 131 -73 21 -125 20 -196 -5 -88 -30 -124 -56 -159 -114 -10 -16 -28 -40 -39 -53 l-21 -23 -31 61 c-36 72 -87 138 -133 171 -18 13 -39 30 -47 37 -7 6 -17 12 -20 12 -4 0 -21 6 -38 14 -109 50 -301 61 -427 25z m337 -181 c38 -15 76 -40 109 -73 88 -86 118 -208 112 -453 -2 -72 -1 -132 2 -132 3 0 37 49 77 108 40 59 89 132 110 162 21 30 63 91 93 135 30 44 58 82 61 85 3 3 8 11 10 19 6 16 73 41 114 41 38 0 115 -29 115 -44 0 -6 -12 -45 -26 -86 -41 -119 -81 -274 -108 -422 -21 -110 -25 -260 -8 -280 10 -12 9 -18 -6 -30 -69 -57 -172 -47 -207 22 -25 49 -22 86 36 370 5 25 14 57 20 72 6 14 9 34 7 44 -3 16 -46 -46 -251 -362 -70 -109 -91 -124 -169 -124 -28 0 -46 7 -65 26 -22 22 -25 31 -19 72 3 26 8 130 11 232 l7 185 -31 -47 c-17 -27 -31 -50 -31 -53 0 -10 -142 -247 -209 -350 -79 -119 -145 -187 -205 -210 -72 -27 -129 0 -165 78 l-19 42 38 7 c56 10 71 20 133 90 64 72 108 134 168 233 86 143 152 241 182 268 24 22 39 27 78 27 41 0 49 3 49 18 0 40 -33 112 -67 146 -45 44 -98 60 -180 53 -169 -16 -313 -173 -344 -375 -11 -74 -11 -86 5 -119 17 -35 16 -36 -5 -59 -27 -29 -94 -40 -143 -24 -42 13 -76 75 -76 136 0 46 23 141 47 199 53 124 172 247 313 324 134 73 319 93 437 49z"/> </g> </svg> 